<svg width="30" height="30" viewBox="0 0 30 30" fill="none" xmlns="http://www.w3.org/2000/svg">
<path d="M0 1.15094V22.4413H8.5923L15 28.849L21.4077 22.4413H30V1.15094H0ZM27.0968 19.538H20.2052L15 24.7432L9.79482 19.538H2.9032V4.05408H27.0967V19.538H27.0968Z" fill="#2274A5"/>
<path d="M14.9999 9.8606C13.9327 9.8606 13.0645 10.7288 13.0645 11.7961C13.0645 12.8633 13.9327 13.7315 14.9999 13.7315C16.0671 13.7315 16.9354 12.8633 16.9354 11.7961C16.9354 10.7288 16.0671 9.8606 14.9999 9.8606Z" fill="#2274A5"/>
<path d="M8.22551 9.8606C7.15828 9.8606 6.29004 10.7288 6.29004 11.7961C6.29004 12.8633 7.15828 13.7315 8.22551 13.7315C9.29273 13.7315 10.161 12.8633 10.161 11.7961C10.161 10.7288 9.29273 9.8606 8.22551 9.8606Z" fill="#2274A5"/>
<path d="M21.7743 9.8606C20.7071 9.8606 19.8389 10.7288 19.8389 11.7961C19.8389 12.8633 20.7071 13.7315 21.7743 13.7315C22.8416 13.7315 23.7098 12.8633 23.7098 11.7961C23.7098 10.7288 22.8416 9.8606 21.7743 9.8606Z" fill="#2274A5"/>
</svg>
