<svg width="30" height="30" viewBox="0 0 30 30" fill="none" xmlns="http://www.w3.org/2000/svg">
<path d="M15.0001 0C8.91848 0 3.9707 4.94777 3.9707 11.0294C3.9707 14.9168 5.97918 18.4563 9.26482 20.4527V30H20.7354V20.4527C24.021 18.4563 26.0296 14.9168 26.0296 11.0294C26.0295 4.94777 21.0817 0 15.0001 0ZM18.0883 27.353H11.9119V24.7059H18.0883V27.353ZM18.8094 18.4983L18.0883 18.867V22.0588H11.9119V18.867L11.1908 18.4983C8.36998 17.0564 6.61773 14.1945 6.61773 11.0294C6.61773 6.40734 10.378 2.64703 15.0001 2.64703C19.6221 2.64703 23.3825 6.40734 23.3825 11.0294C23.3825 14.1945 21.6302 17.0564 18.8094 18.4983Z" fill="#2274A5"/>
<path d="M17.594 8.32886L15.0004 10.9224L12.4068 8.32886L10.5352 10.2005L13.6769 13.3423V18.9706H16.3239V13.3423L19.4657 10.2005L17.594 8.32886Z" fill="#2274A5"/>
</svg>
