<svg width="30" height="30" viewBox="0 0 30 30" fill="none" xmlns="http://www.w3.org/2000/svg">
<g clip-path="url(#clip0_660_515)">
<path d="M15 0C6.72891 0 0 6.72902 0 15C0 23.271 6.72891 30 15 30C23.2711 30 30 23.271 30 15C30 6.72902 23.2711 0 15 0ZM15 27.0968C8.32986 27.0968 2.9032 21.6702 2.9032 15C2.9032 8.3298 8.32986 2.9032 15 2.9032C21.6701 2.9032 27.0968 8.32986 27.0968 15C27.0968 21.6701 21.6701 27.0968 15 27.0968Z" fill="#2274A5"/>
<path d="M14.9998 13.5484C14.4662 13.5484 14.0321 13.1143 14.0321 12.5807C14.0321 12.0471 14.4662 11.6129 14.9998 11.6129C15.5335 11.6129 15.9676 12.0471 15.9676 12.5807H18.8708C18.8708 10.9594 17.8685 9.56866 16.4514 8.99316V6.29034H13.5482V8.99316C12.1312 9.56866 11.1289 10.9594 11.1289 12.5807C11.1289 14.7151 12.8654 16.4517 14.9999 16.4517C15.5335 16.4517 15.9676 16.8858 15.9676 17.4194C15.9676 17.953 15.5335 18.3871 14.9999 18.3871C14.4663 18.3871 14.0322 17.953 14.0322 17.4194H11.129C11.129 19.0406 12.1313 20.4314 13.5483 21.0069V23.7097H16.4515V21.0069C17.8686 20.4314 18.8708 19.0407 18.8708 17.4194C18.8708 15.2849 17.1343 13.5484 14.9998 13.5484Z" fill="#2274A5"/>
</g>
<defs>
<clipPath id="clip0_660_515">
<rect width="30" height="30" fill="white"/>
</clipPath>
</defs>
</svg>
