<svg width="30" height="30" viewBox="0 0 30 30" color="#2274A5" fill="currentColor" xmlns="http://www.w3.org/2000/svg">
<g clip-path="url(#clip0_660_479)">
<path d="M30 18.75V16.4062C30 13.5335 28.2674 11.059 25.793 9.9692C26.6637 8.91516 27.1875 7.56451 27.1875 6.09375C27.1875 2.73363 24.4539 0 21.0938 0C17.7336 0 15 2.73363 15 6.09375C15 7.56451 15.5238 8.91516 16.3945 9.9692C15.0067 10.5805 13.8534 11.6273 13.1074 12.9359C12.0132 11.8927 10.5339 11.25 8.90625 11.25C5.54613 11.25 2.8125 13.9836 2.8125 17.3438C2.8125 18.8145 3.33627 20.1652 4.20703 21.2192C1.73262 22.3091 0 24.7835 0 27.6562V30H17.8125V27.6562C17.8125 24.7835 16.0799 22.3091 13.6055 21.2192C14.1896 20.5121 14.6159 19.6708 14.8344 18.75H30ZM21.0938 2.8125C22.903 2.8125 24.375 4.28449 24.375 6.09375C24.375 7.90301 22.903 9.375 21.0938 9.375C19.2845 9.375 17.8125 7.90301 17.8125 6.09375C17.8125 4.28449 19.2845 2.8125 21.0938 2.8125ZM19.2188 12.1875H22.9688C25.1365 12.1875 26.9276 13.8311 27.1616 15.9375H15.0259C15.2598 13.8311 17.051 12.1875 19.2188 12.1875ZM8.90625 14.0625C10.7155 14.0625 12.1875 15.5345 12.1875 17.3438C12.1875 19.153 10.7155 20.625 8.90625 20.625C7.09699 20.625 5.625 19.153 5.625 17.3438C5.625 15.5345 7.09699 14.0625 8.90625 14.0625ZM14.9741 27.1875H2.8384C3.07242 25.0811 4.86352 23.4375 7.03125 23.4375H10.7812C12.949 23.4375 14.7402 25.0811 14.9741 27.1875Z"/>
</g>
<defs>
<clipPath id="clip0_660_479">
<rect width="30" height="30"/>
</clipPath>
</defs>
</svg>
