<svg width="30" height="30" viewBox="0 0 30 30" fill="none" xmlns="http://www.w3.org/2000/svg">
<g clip-path="url(#clip0_660_566)">
<path d="M26.2849 19.3359C24.8041 17.7746 23.0248 16.6389 21.1509 16.0203C23.018 14.3364 24.1935 11.8999 24.1935 9.19353C24.1935 4.12424 20.0693 0 15 0C9.9307 0 5.80646 4.12424 5.80646 9.19353C5.80646 11.8998 6.98209 14.3364 8.84912 16.0204C6.97506 16.6389 5.19592 17.7746 3.71508 19.3359C1.31941 21.8617 0 25.1334 0 28.5484V30H30V28.5484C30 25.1334 28.6806 21.8617 26.2849 19.3359ZM8.70967 9.19353C8.70967 5.72508 11.5315 2.9032 15 2.9032C18.4685 2.9032 21.2903 5.72502 21.2903 9.19353C21.2903 12.662 18.4685 15.4839 15 15.4839C11.5315 15.4839 8.70967 12.6621 8.70967 9.19353ZM3.00539 27.0968C3.72598 22.0244 8.12637 18.3871 12.0967 18.3871H17.9032C21.8735 18.3871 26.274 22.0244 26.9946 27.0968H3.00539Z" fill="#2274A5"/>
</g>
<defs>
<clipPath id="clip0_660_566">
<rect width="30" height="30" fill="white"/>
</clipPath>
</defs>
</svg>
