<svg width="20" height="20" viewBox="0 0 20 20" fill="none" xmlns="http://www.w3.org/2000/svg">
<g clip-path="url(#clip0_660_436)">
<path d="M7.46484 17.4648C7.46484 18.8627 8.60207 20 10 20C11.398 20 12.5352 18.8627 12.5352 17.4648H7.46484Z" fill="#2274A5"/>
<path d="M17.6061 14.6479V9.29578C17.6061 5.41996 14.6918 2.21223 10.9395 1.74812C11.0578 1.5698 11.1272 1.35637 11.1272 1.12676C11.1272 0.505469 10.6217 0 10.0004 0C9.37914 0 8.87367 0.505469 8.87367 1.12676C8.87367 1.35633 8.94301 1.56984 9.06141 1.74812C5.30906 2.21223 2.3948 5.41996 2.3948 9.29578V14.6479H0.986328V16.338H19.0145V14.6479H17.6061ZM15.9159 14.6479H4.08492V9.29578C4.08492 6.03398 6.73859 3.38027 10.0004 3.38027C13.2623 3.38027 15.9159 6.03395 15.9159 9.29578V14.6479Z" fill="#2274A5"/>
</g>
<defs>
<clipPath id="clip0_660_436">
<rect width="20" height="20" fill="white"/>
</clipPath>
</defs>
</svg>
