<svg width="20" height="20" viewBox="0 0 20 20" fill="none" xmlns="http://www.w3.org/2000/svg">
<path d="M16.7993 9.0625L5.93778 9.0625C5.42003 9.0625 5.00028 9.48224 5.00028 9.99999C5.00028 10.5177 5.42003 10.9375 5.93778 10.9375L16.7993 10.9375L15.5872 12.1496C15.221 12.5157 15.221 13.1093 15.5872 13.4754C15.9532 13.8415 16.5468 13.8415 16.913 13.4754L19.7253 10.663C19.7473 10.6411 19.768 10.6181 19.7876 10.5941C19.7962 10.5836 19.8036 10.5726 19.8117 10.5619C19.822 10.5481 19.8326 10.5347 19.8422 10.5204C19.8509 10.5073 19.8585 10.4937 19.8665 10.4804C19.8742 10.4675 19.8823 10.4549 19.8893 10.4417C19.8967 10.4279 19.9029 10.4138 19.9095 10.3998C19.916 10.3861 19.9228 10.3726 19.9286 10.3586C19.9343 10.3449 19.9389 10.331 19.9438 10.3171C19.9493 10.3021 19.955 10.2873 19.9596 10.272C19.9638 10.2581 19.9669 10.2441 19.9704 10.23C19.9743 10.2144 19.9787 10.1989 19.9818 10.1831C19.985 10.1669 19.9869 10.1505 19.9893 10.1342C19.9913 10.1202 19.9939 10.1065 19.9953 10.0924C19.9983 10.0621 19.9999 10.0317 19.9999 10.0013C19.9999 10.0009 20 10.0004 20 9.99993C20 9.99949 19.9999 9.99899 19.9999 9.99855C19.9999 9.96812 19.9983 9.93774 19.9953 9.90743C19.9939 9.89349 19.9913 9.87993 19.9894 9.86612C19.987 9.84962 19.9851 9.83312 19.9818 9.81674C19.9787 9.80099 19.9744 9.78574 19.9704 9.77031C19.9669 9.75612 19.9638 9.74181 19.9595 9.72774C19.9549 9.71268 19.9493 9.69812 19.944 9.68337C19.9389 9.66924 19.9343 9.65506 19.9286 9.64118C19.9229 9.62743 19.9162 9.61424 19.9098 9.60081C19.9031 9.58649 19.8967 9.57206 19.8892 9.558C19.8823 9.54518 19.8745 9.533 19.8671 9.52056C19.8589 9.50675 19.8511 9.49281 19.8421 9.47937C19.8329 9.46568 19.8228 9.45287 19.8129 9.43968C19.8044 9.42837 19.7966 9.41668 19.7875 9.40568C19.7688 9.38293 19.749 9.36112 19.7283 9.34018C19.7273 9.33918 19.7265 9.33806 19.7255 9.33706L16.913 6.52451C16.7299 6.34145 16.49 6.24989 16.2501 6.24989C16.0102 6.24995 15.7702 6.34145 15.5872 6.52445C15.2211 6.89057 15.2211 7.48413 15.5872 7.85026L16.7993 9.0625Z" fill="#2274A5"/>
<path d="M0.93758 18.4375H12.8125C13.3303 18.4375 13.75 18.0178 13.75 17.5V13.75C13.75 13.2323 13.3303 12.8125 12.8125 12.8125C12.2948 12.8125 11.875 13.2323 11.875 13.75V16.5625H1.87507L1.87507 3.43753L11.875 3.43753V6.25008C11.875 6.76782 12.2948 7.18757 12.8125 7.18757C13.3303 7.18757 13.75 6.76782 13.75 6.25008V2.50004C13.75 1.98229 13.3303 1.56254 12.8125 1.56254H0.93758C0.419833 1.56254 8.58307e-05 1.98229 8.58307e-05 2.50004L8.58307e-05 17.5C8.58307e-05 18.0178 0.419833 18.4375 0.93758 18.4375Z" fill="#2274A5"/>
</svg>
